# xmcd
#
# Track frame offsets: 
#        150
#        21906
#        41675
#        60304
#        70397
#        89427
#        116306
#        136360
#        150986
#        183761
#
# Disc length: 2593 seconds
#
# Revision: 0
# Processed by: cddbd v1.5.2PL0 Copyright (c) Steve Scherf et al.
# Submitted via: ExactAudioCopy v1.0b3
#
DISCID=790a1f0a
DTITLE=Kasey Chambers - Rattlin' Bones - Disc 2
DYEAR=2008
DGENRE=Country
TTITLE0=Rattlin' Bones
TTITLE1=Monkey On A Wire
TTITLE2=Sweetest Waste Of Time
TTITLE3=The Devil's Inside My Head
TTITLE4=Your Day Will Come
TTITLE5=Wildflower
TTITLE6=Jackson Hole
TTITLE7=Short Fuse (Part IV)
TTITLE8=The Captain
TTITLE9=Woe Is Mine
EXTD=
EXTT0=
EXTT1=
EXTT2=
EXTT3=
EXTT4=
EXTT5=
EXTT6=
EXTT7=
EXTT8=
EXTT9=
PLAYORDER=
